<svg width="20" height="20" viewBox="0 0 20 20" fill="none" xmlns="http://www.w3.org/2000/svg">
<path fill-rule="evenodd" clip-rule="evenodd" d="M8.82808 1.9322C9.56926 1.57794 10.4309 1.57794 11.1721 1.9322C11.4941 2.0861 11.7891 2.33776 12.1977 2.68623C12.2189 2.70432 12.2404 2.72267 12.2622 2.74128C12.4606 2.91035 12.5231 2.96234 12.5863 3.00471C12.7471 3.11249 12.9277 3.1873 13.1176 3.22479C13.1923 3.23954 13.2732 3.24696 13.5331 3.26769C13.5617 3.26998 13.5899 3.27221 13.6177 3.27442C14.1529 3.31689 14.5395 3.34757 14.876 3.46643C15.6506 3.74002 16.2599 4.34929 16.5335 5.12388C16.6524 5.46039 16.683 5.84697 16.7255 6.38226C16.7277 6.41004 16.7299 6.43823 16.7322 6.46683C16.753 6.72667 16.7604 6.80761 16.7751 6.88228C16.8126 7.0722 16.8874 7.2528 16.9952 7.4136C17.0376 7.47683 17.0896 7.53931 17.2586 7.73771C17.2773 7.75955 17.2956 7.78107 17.3137 7.80228C17.6622 8.21081 17.9138 8.50585 18.0677 8.82784C18.422 9.56902 18.422 10.4307 18.0677 11.1718C17.9138 11.4938 17.6622 11.7889 17.3137 12.1974C17.2956 12.2186 17.2773 12.2401 17.2586 12.262C17.0896 12.4604 17.0376 12.5229 16.9952 12.5861C16.8874 12.7469 16.8126 12.9275 16.7751 13.1174C16.7604 13.1921 16.753 13.273 16.7322 13.5329C16.7299 13.5615 16.7277 13.5896 16.7255 13.6174C16.683 14.1527 16.6524 14.5393 16.5335 14.8758C16.2599 15.6504 15.6506 16.2597 14.876 16.5332C14.5395 16.6521 14.1529 16.6828 13.6177 16.7253C13.5899 16.7275 13.5617 16.7297 13.5331 16.732C13.2732 16.7527 13.1923 16.7601 13.1176 16.7749C12.9277 16.8124 12.7471 16.8872 12.5863 16.995C12.5231 17.0373 12.4606 17.0893 12.2622 17.2584C12.2404 17.277 12.2189 17.2954 12.1976 17.3135C11.7891 17.6619 11.4941 17.9136 11.1721 18.0675C10.4309 18.4217 9.56926 18.4217 8.82808 18.0675C8.50609 17.9136 8.21104 17.6619 7.8025 17.3134C7.7813 17.2954 7.75979 17.277 7.73795 17.2584C7.53955 17.0893 7.47707 17.0373 7.41385 16.995C7.25304 16.8872 7.07245 16.8124 6.88253 16.7749C6.80786 16.7601 6.72691 16.7527 6.46707 16.732C6.43847 16.7297 6.41029 16.7275 6.3825 16.7253C5.84722 16.6828 5.46064 16.6521 5.12413 16.5332C4.34954 16.2597 3.74026 15.6504 3.46667 14.8758C3.34781 14.5393 3.31713 14.1527 3.27466 13.6174C3.27246 13.5896 3.27022 13.5614 3.26794 13.5329C3.2472 13.273 3.23978 13.1921 3.22504 13.1174C3.18754 12.9275 3.11274 12.7469 3.00496 12.5861C2.96258 12.5228 2.9106 12.4604 2.74152 12.262C2.72291 12.2401 2.70456 12.2186 2.68648 12.1974C2.33801 11.7889 2.08634 11.4938 1.93244 11.1718C1.57818 10.4307 1.57818 9.56902 1.93244 8.82784C2.08634 8.50584 2.33801 8.2108 2.68647 7.80227C2.70456 7.78106 2.72291 7.75955 2.74152 7.73771C2.9106 7.53931 2.96258 7.47683 3.00496 7.4136C3.11274 7.2528 3.18754 7.0722 3.22504 6.88228C3.23978 6.80761 3.2472 6.72667 3.26794 6.46683C3.27022 6.43823 3.27246 6.41004 3.27466 6.38226C3.31713 5.84698 3.34781 5.46039 3.46667 5.12388C3.74026 4.34929 4.34954 3.74002 5.12413 3.46643C5.46064 3.34757 5.84722 3.31689 6.3825 3.27442C6.41029 3.27221 6.43847 3.26998 6.46707 3.26769C6.72692 3.24696 6.80786 3.23954 6.88253 3.22479C7.07245 3.1873 7.25304 3.11249 7.41385 3.00471C7.47707 2.96234 7.53955 2.91035 7.73795 2.74128C7.75979 2.72267 7.7813 2.70432 7.80251 2.68623C8.21104 2.33776 8.50609 2.0861 8.82808 1.9322ZM10.6312 3.06392C10.2321 2.87316 9.7681 2.87316 9.369 3.06392C9.21471 3.13767 9.05207 3.26943 8.55155 3.69598C8.54332 3.70298 8.53521 3.7099 8.52721 3.71672C8.36295 3.85676 8.24305 3.95898 8.11221 4.04667C7.81357 4.24683 7.47819 4.38575 7.12548 4.45539C6.97096 4.48589 6.81389 4.4984 6.59872 4.51553C6.58824 4.51636 6.57762 4.51721 6.56685 4.51806C5.91131 4.57038 5.70314 4.59221 5.54188 4.64916C5.1248 4.79648 4.79673 5.12455 4.64941 5.54164C4.59245 5.70289 4.57062 5.91107 4.51831 6.56661C4.51745 6.57737 4.5166 6.58799 4.51577 6.59848C4.49864 6.81365 4.48614 6.97072 4.45563 7.12524C4.386 7.47794 4.24708 7.81333 4.04691 8.11197C3.95922 8.2428 3.857 8.36271 3.71696 8.52697C3.71014 8.53497 3.70323 8.54308 3.69622 8.5513C3.26968 9.05183 3.13791 9.21446 3.06416 9.36876C2.87341 9.76786 2.87341 10.2318 3.06416 10.6309C3.13791 10.7852 3.26968 10.9479 3.69622 11.4484C3.70323 11.4566 3.71014 11.4647 3.71697 11.4727C3.857 11.637 3.95922 11.7569 4.04691 11.8877C4.24708 12.1863 4.386 12.5217 4.45563 12.8744C4.48614 13.029 4.49864 13.186 4.51577 13.4012C4.5166 13.4117 4.51745 13.4223 4.51831 13.4331C4.57062 14.0886 4.59245 14.2968 4.64941 14.458C4.79673 14.8751 5.1248 15.2032 5.54188 15.3505C5.70314 15.4075 5.91131 15.4293 6.56685 15.4816L6.59872 15.4841C6.81389 15.5013 6.97096 15.5138 7.12548 15.5443C7.47819 15.6139 7.81357 15.7528 8.11221 15.953C8.24305 16.0407 8.36295 16.1429 8.52722 16.283L8.55155 16.3037C9.05207 16.7302 9.21471 16.862 9.36901 16.9358C9.7681 17.1265 10.2321 17.1265 10.6312 16.9358C10.7855 16.862 10.9481 16.7302 11.4486 16.3037L11.473 16.2829C11.6372 16.1429 11.7571 16.0407 11.8879 15.953C12.1866 15.7528 12.522 15.6139 12.8747 15.5443C13.0292 15.5138 13.1863 15.5013 13.4014 15.4841L13.4333 15.4816C14.0889 15.4293 14.297 15.4075 14.4583 15.3505C14.8754 15.2032 15.2034 14.8751 15.3508 14.458C15.4077 14.2968 15.4295 14.0886 15.4819 13.4331L15.4844 13.4012C15.5015 13.186 15.514 13.029 15.5445 12.8744C15.6142 12.5217 15.7531 12.1863 15.9533 11.8877C16.0409 11.7569 16.1432 11.637 16.2832 11.4727L16.3039 11.4484C16.7305 10.9479 16.8623 10.7852 16.936 10.6309C17.1268 10.2318 17.1268 9.76786 16.936 9.36876C16.8623 9.21447 16.7305 9.05183 16.3039 8.5513L16.2832 8.52695C16.1432 8.3627 16.0409 8.2428 15.9533 8.11197C15.7531 7.81333 15.6142 7.47794 15.5445 7.12524C15.514 6.97072 15.5015 6.81365 15.4844 6.59847L15.4819 6.56661C15.4295 5.91107 15.4077 5.70289 15.3508 5.54164C15.2034 5.12455 14.8754 4.79648 14.4583 4.64916C14.297 4.59221 14.0889 4.57038 13.4333 4.51806C13.4225 4.51721 13.4119 4.51636 13.4014 4.51553C13.1863 4.4984 13.0292 4.48589 12.8747 4.45539C12.522 4.38575 12.1866 4.24683 11.8879 4.04667C11.7571 3.95898 11.6372 3.85675 11.4729 3.71672C11.4649 3.70989 11.4568 3.70298 11.4486 3.69598C10.9481 3.26943 10.7855 3.13767 10.6312 3.06392ZM13.3704 7.46578C13.6153 7.71071 13.6153 8.10781 13.3704 8.35274L9.18921 12.5339C8.94429 12.7788 8.54718 12.7788 8.30226 12.5339L6.62979 10.8614C6.38487 10.6165 6.38487 10.2194 6.62979 9.97447C6.87472 9.72955 7.27182 9.72955 7.51675 9.97447L8.74574 11.2035L12.4834 7.46578C12.7283 7.22085 13.1254 7.22085 13.3704 7.46578Z" fill="#363636"/>
</svg>
