<svg width="40" height="36" viewBox="0 0 40 36" fill="none" xmlns="http://www.w3.org/2000/svg">
<path d="M27.8788 24.4421L17.7353 1.89469C14.0352 4.92637 16.6507 21.7262 7.78331 34.6737C12.0575 34.1686 12.7682 30.0712 15.4077 27.5607C18.0473 25.0503 22.6157 24.1263 27.8788 24.4421ZM19.7769 0C22.4561 0 24.5616 1.57887 26.3479 5.55779L40 36H37.3872C34.7478 36 32.3562 34.4602 31.2856 32.0718L28.5168 25.8949C25.1039 26.9318 25.9591 30.8595 21.947 33.4071C17.8405 36.0148 14.1176 35.9405 6.82628 36H0C11.1005 21.3474 11.1644 0 19.7769 0Z" fill="#009365"/>
</svg>
